<svg xmlns="http://www.w3.org/2000/svg" viewBox="0 0 855 1492" font-family="'PingFang SC','Microsoft YaHei',sans-serif">
  <defs>
    <!-- 箭头标记：为每条连线定义对应颜色的箭头 -->
    <marker id="arrow0" viewBox="0 0 8 8" refX="7.5" refY="4"
            markerWidth="5" markerHeight="5" orient="auto">
      <path d="M 0 0 L 8 4 L 0 8 L 1 4 Z" fill="#e57373"/>
    </marker>
    <marker id="arrow1" viewBox="0 0 8 8" refX="7.5" refY="4"
            markerWidth="5" markerHeight="5" orient="auto">
      <path d="M 0 0 L 8 4 L 0 8 L 1 4 Z" fill="#81c784"/>
    </marker>
    <marker id="arrow2" viewBox="0 0 8 8" refX="7.5" refY="4"
            markerWidth="5" markerHeight="5" orient="auto">
      <path d="M 0 0 L 8 4 L 0 8 L 1 4 Z" fill="#64b5f6"/>
    </marker>
    <marker id="arrow3" viewBox="0 0 8 8" refX="7.5" refY="4"
            markerWidth="5" markerHeight="5" orient="auto">
      <path d="M 0 0 L 8 4 L 0 8 L 1 4 Z" fill="#ffb74d"/>
    </marker>
    <marker id="arrow4" viewBox="0 0 8 8" refX="7.5" refY="4"
            markerWidth="5" markerHeight="5" orient="auto">
      <path d="M 0 0 L 8 4 L 0 8 L 1 4 Z" fill="#ba68c8"/>
    </marker>
    <marker id="arrow5" viewBox="0 0 8 8" refX="7.5" refY="4"
            markerWidth="5" markerHeight="5" orient="auto">
      <path d="M 0 0 L 8 4 L 0 8 L 1 4 Z" fill="#4db6ac"/>
    </marker>
    <marker id="arrow6" viewBox="0 0 8 8" refX="7.5" refY="4"
            markerWidth="5" markerHeight="5" orient="auto">
      <path d="M 0 0 L 8 4 L 0 8 L 1 4 Z" fill="#f06292"/>
    </marker>
    <marker id="arrow7" viewBox="0 0 8 8" refX="7.5" refY="4"
            markerWidth="5" markerHeight="5" orient="auto">
      <path d="M 0 0 L 8 4 L 0 8 L 1 4 Z" fill="#7986cb"/>
    </marker>
    <marker id="arrow8" viewBox="0 0 8 8" refX="7.5" refY="4"
            markerWidth="5" markerHeight="5" orient="auto">
      <path d="M 0 0 L 8 4 L 0 8 L 1 4 Z" fill="#aed581"/>
    </marker>
  </defs>
  <style>
    .legend-text { font-size: 10px; fill: #555; }
    @keyframes fadeIn { from { opacity: 0; } to { opacity: 1; } }
    .layer-frame { opacity: 0; animation: fadeIn 0.4s ease-out forwards; }
    .component-card { opacity: 0; animation: fadeIn 0.5s ease-out forwards; }
    
    /* 连线淡入 + 虚线流动动画 */
    .connector-line { 
      opacity: 0; 
      animation: fadeIn 0.4s ease-out forwards, dashFlow 2s linear infinite; 
    }
    
    @keyframes dashFlow {
      to { stroke-dashoffset: -12; }
    }
  </style>
  <rect width="855" height="1492" fill="#f8f9fa"/>
  <text x="427" y="20" text-anchor="middle" font-size="18" font-weight="bold" fill="#333">电商领域模型</text>
  <g transform="translate(40, 30)" class="layer-frame">
    <rect x="0" y="0" width="12" height="12" fill="#fce4ec" stroke="#e91e63"/>
    <text x="16" y="10" class="legend-text">时标</text>
    <rect x="50" y="0" width="12" height="12" fill="#f1f8e9" stroke="#689f38"/>
    <text x="66" y="10" class="legend-text">资源</text>
    <rect x="100" y="0" width="12" height="12" fill="#fff9c4" stroke="#f9a825"/>
    <text x="116" y="10" class="legend-text">角色</text>
    <rect x="150" y="0" width="12" height="12" fill="#e3f2fd" stroke="#1976d2"/>
    <text x="166" y="10" class="legend-text">描述</text>
  </g>
  <!-- 领域外框 -->
  <rect x="40" y="60" width="775" height="301" rx="4" fill="#fff" stroke="#333" stroke-width="2" class="layer-frame" style="animation-delay: 0.1s"/>
  <path d="M40 60 L103 60 L103 77 Q103 85 95 85 L40 85 Z" fill="#333" class="layer-frame" style="animation-delay: 0.15000000000000002s"/>
  <text x="71.5" y="77" text-anchor="middle" font-size="13" font-weight="bold" fill="#fff" class="layer-frame" style="animation-delay: 0.15000000000000002s">用户域</text>
  <rect x="40" y="381" width="775" height="438" rx="4" fill="#fff" stroke="#333" stroke-width="2" class="layer-frame" style="animation-delay: 0.2s"/>
  <path d="M40 381 L103 381 L103 398 Q103 406 95 406 L40 406 Z" fill="#333" class="layer-frame" style="animation-delay: 0.25s"/>
  <text x="71.5" y="398" text-anchor="middle" font-size="13" font-weight="bold" fill="#fff" class="layer-frame" style="animation-delay: 0.25s">商品域</text>
  <rect x="40" y="839" width="775" height="633" rx="4" fill="#fff" stroke="#333" stroke-width="2" class="layer-frame" style="animation-delay: 0.30000000000000004s"/>
  <path d="M40 839 L103 839 L103 856 Q103 864 95 864 L40 864 Z" fill="#333" class="layer-frame" style="animation-delay: 0.35000000000000003s"/>
  <text x="71.5" y="856" text-anchor="middle" font-size="13" font-weight="bold" fill="#fff" class="layer-frame" style="animation-delay: 0.35000000000000003s">订单域</text>
  <!-- 模型卡片 -->
  <g transform="translate(255, 100)" class="component-card" style="animation-delay: 0.3s">
    <rect x="0" y="0" width="150" height="231" rx="6" fill="#fff9c4" stroke="#f9a825" stroke-width="1.5"/>
    <text x="75.0" y="16" text-anchor="middle" font-size="12" font-weight="bold">用户</text>
    <text x="75.0" y="28" text-anchor="middle" font-size="10" fill="#666">User</text>
    <line x1="8" y1="35" x2="142" y2="35" stroke="#f9a825" stroke-width="0.5" stroke-dasharray="2,2"/>
    <text x="8" y="50" font-size="10" fill="#555">+ 用户名</text>
    <text x="8" y="63" font-size="10" fill="#555">+ 密码</text>
    <text x="8" y="76" font-size="10" fill="#555">+ 昵称</text>
    <text x="8" y="89" font-size="10" fill="#555">+ 手机号</text>
    <text x="8" y="102" font-size="10" fill="#555">+ 邮箱</text>
    <text x="8" y="115" font-size="10" fill="#555">+ 头像</text>
    <text x="8" y="128" font-size="10" fill="#555">+ 性别</text>
    <text x="8" y="141" font-size="10" fill="#555">+ 状态</text>
    <text x="8" y="154" font-size="10" fill="#555">+ 最后登录时间</text>
    <text x="8" y="167" font-size="10" fill="#555">T user_level</text>
    <text x="8" y="180" font-size="10" fill="#555">T user_address</text>
    <text x="8" y="193" font-size="10" fill="#555">T user_login_log</text>
    <line x1="8" y1="206" x2="142" y2="206" stroke="#f9a825" stroke-width="0.5" stroke-dasharray="2,2"/>
    <text x="8" y="218" font-size="10" fill="#555">+ 登录()</text>
  </g>
  <g transform="translate(60, 100)" class="component-card" style="animation-delay: 0.35s">
    <rect x="0" y="0" width="150" height="125" rx="6" fill="#e3f2fd" stroke="#1976d2" stroke-width="1.5"/>
    <text x="75.0" y="16" text-anchor="middle" font-size="12" font-weight="bold">用户等级</text>
    <text x="75.0" y="28" text-anchor="middle" font-size="10" fill="#666">UserLevel</text>
    <line x1="8" y1="35" x2="142" y2="35" stroke="#1976d2" stroke-width="0.5" stroke-dasharray="2,2"/>
    <text x="8" y="50" font-size="10" fill="#555">+ 等级名称</text>
    <text x="8" y="63" font-size="10" fill="#555">+ 等级值</text>
    <text x="8" y="76" font-size="10" fill="#555">+ 最低积分</text>
    <text x="8" y="89" font-size="10" fill="#555">+ 最高积分</text>
    <text x="8" y="102" font-size="10" fill="#555">+ 折扣率</text>
    <text x="8" y="115" font-size="10" fill="#555">+ 等级图标</text>
  </g>
  <g transform="translate(450, 100)" class="component-card" style="animation-delay: 0.4s">
    <rect x="0" y="0" width="150" height="138" rx="6" fill="#f1f8e9" stroke="#689f38" stroke-width="1.5"/>
    <text x="75.0" y="16" text-anchor="middle" font-size="12" font-weight="bold">收货地址</text>
    <text x="75.0" y="28" text-anchor="middle" font-size="10" fill="#666">UserAddress</text>
    <line x1="8" y1="35" x2="142" y2="35" stroke="#689f38" stroke-width="0.5" stroke-dasharray="2,2"/>
    <text x="8" y="50" font-size="10" fill="#555">+ 收货人</text>
    <text x="8" y="63" font-size="10" fill="#555">+ 手机号</text>
    <text x="8" y="76" font-size="10" fill="#555">+ 省</text>
    <text x="8" y="89" font-size="10" fill="#555">+ 市</text>
    <text x="8" y="102" font-size="10" fill="#555">+ 区</text>
    <text x="8" y="115" font-size="10" fill="#555">+ 详细地址</text>
    <text x="8" y="128" font-size="10" fill="#555">+ 是否默认</text>
  </g>
  <g transform="translate(645, 100)" class="component-card" style="animation-delay: 0.45s">
    <rect x="0" y="0" width="150" height="125" rx="6" fill="#fce4ec" stroke="#e91e63" stroke-width="1.5"/>
    <text x="75.0" y="16" text-anchor="middle" font-size="12" font-weight="bold">登录日志</text>
    <text x="75.0" y="28" text-anchor="middle" font-size="10" fill="#666">UserLoginLog</text>
    <line x1="8" y1="35" x2="142" y2="35" stroke="#e91e63" stroke-width="0.5" stroke-dasharray="2,2"/>
    <text x="8" y="50" font-size="10" fill="#555">+ 登录方式</text>
    <text x="8" y="63" font-size="10" fill="#555">+ 登录IP</text>
    <text x="8" y="76" font-size="10" fill="#555">+ 登录设备</text>
    <text x="8" y="89" font-size="10" fill="#555">+ 登录地点</text>
    <text x="8" y="102" font-size="10" fill="#555">+ 登录时间</text>
    <text x="8" y="115" font-size="10" fill="#555">+ 登出时间</text>
  </g>
  <g transform="translate(60, 421)" class="component-card" style="animation-delay: 0.5s">
    <rect x="0" y="0" width="150" height="112" rx="6" fill="#e3f2fd" stroke="#1976d2" stroke-width="1.5"/>
    <text x="75.0" y="16" text-anchor="middle" font-size="12" font-weight="bold">商品类目</text>
    <text x="75.0" y="28" text-anchor="middle" font-size="10" fill="#666">ProductCategory</text>
    <line x1="8" y1="35" x2="142" y2="35" stroke="#1976d2" stroke-width="0.5" stroke-dasharray="2,2"/>
    <text x="8" y="50" font-size="10" fill="#555">+ 类目名称</text>
    <text x="8" y="63" font-size="10" fill="#555">+ 层级</text>
    <text x="8" y="76" font-size="10" fill="#555">+ 排序</text>
    <text x="8" y="89" font-size="10" fill="#555">+ 图标</text>
    <text x="8" y="102" font-size="10" fill="#555">+ 状态</text>
  </g>
  <g transform="translate(255, 421)" class="component-card" style="animation-delay: 0.55s">
    <rect x="0" y="0" width="150" height="125" rx="6" fill="#e3f2fd" stroke="#1976d2" stroke-width="1.5"/>
    <text x="75.0" y="16" text-anchor="middle" font-size="12" font-weight="bold">商品品牌</text>
    <text x="75.0" y="28" text-anchor="middle" font-size="10" fill="#666">ProductBrand</text>
    <line x1="8" y1="35" x2="142" y2="35" stroke="#1976d2" stroke-width="0.5" stroke-dasharray="2,2"/>
    <text x="8" y="50" font-size="10" fill="#555">+ 品牌名称</text>
    <text x="8" y="63" font-size="10" fill="#555">+ 英文名</text>
    <text x="8" y="76" font-size="10" fill="#555">+ 品牌Logo</text>
    <text x="8" y="89" font-size="10" fill="#555">+ 品牌描述</text>
    <text x="8" y="102" font-size="10" fill="#555">+ 排序</text>
    <text x="8" y="115" font-size="10" fill="#555">+ 状态</text>
  </g>
  <g transform="translate(450, 421)" class="component-card" style="animation-delay: 0.6000000000000001s">
    <rect x="0" y="0" width="150" height="218" rx="6" fill="#f1f8e9" stroke="#689f38" stroke-width="1.5"/>
    <text x="75.0" y="16" text-anchor="middle" font-size="12" font-weight="bold">商品SPU</text>
    <text x="75.0" y="28" text-anchor="middle" font-size="10" fill="#666">ProductSpu</text>
    <line x1="8" y1="35" x2="142" y2="35" stroke="#689f38" stroke-width="0.5" stroke-dasharray="2,2"/>
    <text x="8" y="50" font-size="10" fill="#555">+ 商品名称</text>
    <text x="8" y="63" font-size="10" fill="#555">+ 副标题</text>
    <text x="8" y="76" font-size="10" fill="#555">+ 商品编码</text>
    <text x="8" y="89" font-size="10" fill="#555">+ 主图</text>
    <text x="8" y="102" font-size="10" fill="#555">+ 商品图片</text>
    <text x="8" y="115" font-size="10" fill="#555">+ 商品详情</text>
    <text x="8" y="128" font-size="10" fill="#555">+ 状态</text>
    <text x="8" y="141" font-size="10" fill="#555">+ 排序</text>
    <text x="8" y="154" font-size="10" fill="#555">T product_category</text>
    <text x="8" y="167" font-size="10" fill="#555">T product_brand</text>
    <text x="8" y="180" font-size="10" fill="#555">T product_sku</text>
    <line x1="8" y1="193" x2="142" y2="193" stroke="#689f38" stroke-width="0.5" stroke-dasharray="2,2"/>
    <text x="8" y="205" font-size="10" fill="#555">+ 上下架()</text>
  </g>
  <g transform="translate(645, 421)" class="component-card" style="animation-delay: 0.65s">
    <rect x="0" y="0" width="150" height="203" rx="6" fill="#f1f8e9" stroke="#689f38" stroke-width="1.5"/>
    <text x="75.0" y="16" text-anchor="middle" font-size="12" font-weight="bold">商品SKU</text>
    <text x="75.0" y="28" text-anchor="middle" font-size="10" fill="#666">ProductSku</text>
    <line x1="8" y1="35" x2="142" y2="35" stroke="#689f38" stroke-width="0.5" stroke-dasharray="2,2"/>
    <text x="8" y="50" font-size="10" fill="#555">+ SKU编码</text>
    <text x="8" y="63" font-size="10" fill="#555">+ SKU名称</text>
    <text x="8" y="76" font-size="10" fill="#555">+ 规格信息</text>
    <text x="8" y="89" font-size="10" fill="#555">+ 销售价</text>
    <text x="8" y="102" font-size="10" fill="#555">+ 原价</text>
    <text x="8" y="115" font-size="10" fill="#555">+ 成本价</text>
    <text x="8" y="128" font-size="10" fill="#555">+ 库存</text>
    <text x="8" y="141" font-size="10" fill="#555">+ 冻结库存</text>
    <text x="8" y="154" font-size="10" fill="#555">+ 重量</text>
    <text x="8" y="167" font-size="10" fill="#555">+ 体积</text>
    <text x="8" y="180" font-size="10" fill="#555">+ SKU图片</text>
    <text x="8" y="193" font-size="10" fill="#555">+ 状态</text>
  </g>
  <g transform="translate(60, 664)" class="component-card" style="animation-delay: 0.7s">
    <rect x="0" y="0" width="150" height="125" rx="6" fill="#fce4ec" stroke="#e91e63" stroke-width="1.5"/>
    <text x="75.0" y="16" text-anchor="middle" font-size="12" font-weight="bold">库存日志</text>
    <text x="75.0" y="28" text-anchor="middle" font-size="10" fill="#666">ProductStockLog</text>
    <line x1="8" y1="35" x2="142" y2="35" stroke="#e91e63" stroke-width="0.5" stroke-dasharray="2,2"/>
    <text x="8" y="50" font-size="10" fill="#555">+ 变更类型</text>
    <text x="8" y="63" font-size="10" fill="#555">+ 变更数量</text>
    <text x="8" y="76" font-size="10" fill="#555">+ 变更前库存</text>
    <text x="8" y="89" font-size="10" fill="#555">+ 变更后库存</text>
    <text x="8" y="102" font-size="10" fill="#555">+ 关联单号</text>
    <text x="8" y="115" font-size="10" fill="#555">+ 备注</text>
  </g>
  <g transform="translate(60, 879)" class="component-card" style="animation-delay: 0.75s">
    <rect x="0" y="0" width="150" height="73" rx="6" fill="#f1f8e9" stroke="#689f38" stroke-width="1.5"/>
    <text x="75.0" y="16" text-anchor="middle" font-size="12" font-weight="bold">购物车</text>
    <text x="75.0" y="28" text-anchor="middle" font-size="10" fill="#666">Cart</text>
    <line x1="8" y1="35" x2="142" y2="35" stroke="#689f38" stroke-width="0.5" stroke-dasharray="2,2"/>
    <text x="8" y="50" font-size="10" fill="#555">+ 数量</text>
    <text x="8" y="63" font-size="10" fill="#555">+ 是否选中</text>
  </g>
  <g transform="translate(255, 879)" class="component-card" style="animation-delay: 0.8s">
    <rect x="0" y="0" width="150" height="413" rx="6" fill="#fce4ec" stroke="#e91e63" stroke-width="1.5"/>
    <text x="75.0" y="16" text-anchor="middle" font-size="12" font-weight="bold">订单</text>
    <text x="75.0" y="28" text-anchor="middle" font-size="10" fill="#666">Order</text>
    <line x1="8" y1="35" x2="142" y2="35" stroke="#e91e63" stroke-width="0.5" stroke-dasharray="2,2"/>
    <text x="8" y="50" font-size="10" fill="#555">+ 订单号</text>
    <text x="8" y="63" font-size="10" fill="#555">+ 商品总金额</text>
    <text x="8" y="76" font-size="10" fill="#555">+ 优惠金额</text>
    <text x="8" y="89" font-size="10" fill="#555">+ 运费</text>
    <text x="8" y="102" font-size="10" fill="#555">+ 应付金额</text>
    <text x="8" y="115" font-size="10" fill="#555">+ 支付方式</text>
    <text x="8" y="128" font-size="10" fill="#555">+ 支付时间</text>
    <text x="8" y="141" font-size="10" fill="#555">+ 订单状态</text>
    <text x="8" y="154" font-size="10" fill="#555">+ 收货人</text>
    <text x="8" y="167" font-size="10" fill="#555">+ 手机号</text>
    <text x="8" y="180" font-size="10" fill="#555">+ 省</text>
    <text x="8" y="193" font-size="10" fill="#555">+ 市</text>
    <text x="8" y="206" font-size="10" fill="#555">+ 区</text>
    <text x="8" y="219" font-size="10" fill="#555">+ 详细地址</text>
    <text x="8" y="232" font-size="10" fill="#555">+ 买家备注</text>
    <text x="8" y="245" font-size="10" fill="#555">+ 发货时间</text>
    <text x="8" y="258" font-size="10" fill="#555">+ 收货时间</text>
    <text x="8" y="271" font-size="10" fill="#555">+ 取消时间</text>
    <text x="8" y="284" font-size="10" fill="#555">+ 取消原因</text>
    <text x="8" y="297" font-size="10" fill="#555">T cart</text>
    <text x="8" y="310" font-size="10" fill="#555">T order_item</text>
    <text x="8" y="323" font-size="10" fill="#555">T order_payment</text>
    <text x="8" y="336" font-size="10" fill="#555">T order_delivery</text>
    <line x1="8" y1="349" x2="142" y2="349" stroke="#e91e63" stroke-width="0.5" stroke-dasharray="2,2"/>
    <text x="8" y="361" font-size="10" fill="#555">+ 下单()</text>
    <text x="8" y="374" font-size="10" fill="#555">+ 支付()</text>
    <text x="8" y="387" font-size="10" fill="#555">+ 发货()</text>
    <text x="8" y="400" font-size="10" fill="#555">+ 取消()</text>
  </g>
  <g transform="translate(450, 879)" class="component-card" style="animation-delay: 0.8500000000000001s">
    <rect x="0" y="0" width="150" height="190" rx="6" fill="#fce4ec" stroke="#e91e63" stroke-width="1.5"/>
    <text x="75.0" y="16" text-anchor="middle" font-size="12" font-weight="bold">订单明细</text>
    <text x="75.0" y="28" text-anchor="middle" font-size="10" fill="#666">OrderItem</text>
    <line x1="8" y1="35" x2="142" y2="35" stroke="#e91e63" stroke-width="0.5" stroke-dasharray="2,2"/>
    <text x="8" y="50" font-size="10" fill="#555">+ 订单号</text>
    <text x="8" y="63" font-size="10" fill="#555">+ SKU编码</text>
    <text x="8" y="76" font-size="10" fill="#555">+ SKU名称</text>
    <text x="8" y="89" font-size="10" fill="#555">+ 规格信息</text>
    <text x="8" y="102" font-size="10" fill="#555">+ 商品图片</text>
    <text x="8" y="115" font-size="10" fill="#555">+ 单价</text>
    <text x="8" y="128" font-size="10" fill="#555">+ 数量</text>
    <text x="8" y="141" font-size="10" fill="#555">+ 小计金额</text>
    <text x="8" y="154" font-size="10" fill="#555">+ 优惠金额</text>
    <text x="8" y="167" font-size="10" fill="#555">+ 实付金额</text>
    <text x="8" y="180" font-size="10" fill="#555">+ 状态</text>
  </g>
  <g transform="translate(645, 879)" class="component-card" style="animation-delay: 0.9000000000000001s">
    <rect x="0" y="0" width="150" height="151" rx="6" fill="#fce4ec" stroke="#e91e63" stroke-width="1.5"/>
    <text x="75.0" y="16" text-anchor="middle" font-size="12" font-weight="bold">支付记录</text>
    <text x="75.0" y="28" text-anchor="middle" font-size="10" fill="#666">OrderPayment</text>
    <line x1="8" y1="35" x2="142" y2="35" stroke="#e91e63" stroke-width="0.5" stroke-dasharray="2,2"/>
    <text x="8" y="50" font-size="10" fill="#555">+ 订单号</text>
    <text x="8" y="63" font-size="10" fill="#555">+ 支付流水号</text>
    <text x="8" y="76" font-size="10" fill="#555">+ 支付方式</text>
    <text x="8" y="89" font-size="10" fill="#555">+ 支付金额</text>
    <text x="8" y="102" font-size="10" fill="#555">+ 支付状态</text>
    <text x="8" y="115" font-size="10" fill="#555">+ 支付时间</text>
    <text x="8" y="128" font-size="10" fill="#555">+ 退款金额</text>
    <text x="8" y="141" font-size="10" fill="#555">+ 退款时间</text>
  </g>
  <g transform="translate(60, 1317)" class="component-card" style="animation-delay: 0.95s">
    <rect x="0" y="0" width="150" height="125" rx="6" fill="#fce4ec" stroke="#e91e63" stroke-width="1.5"/>
    <text x="75.0" y="16" text-anchor="middle" font-size="12" font-weight="bold">订单物流</text>
    <text x="75.0" y="28" text-anchor="middle" font-size="10" fill="#666">OrderDelivery</text>
    <line x1="8" y1="35" x2="142" y2="35" stroke="#e91e63" stroke-width="0.5" stroke-dasharray="2,2"/>
    <text x="8" y="50" font-size="10" fill="#555">+ 订单号</text>
    <text x="8" y="63" font-size="10" fill="#555">+ 快递公司</text>
    <text x="8" y="76" font-size="10" fill="#555">+ 快递单号</text>
    <text x="8" y="89" font-size="10" fill="#555">+ 发货时间</text>
    <text x="8" y="102" font-size="10" fill="#555">+ 签收时间</text>
    <text x="8" y="115" font-size="10" fill="#555">+ 状态</text>
  </g>
  <!-- 连线 -->
  <path d="M 210 162.5 L 217.5 162.5 Q 225.0 162.5 225.0 170.0 L 225.0 207.5 Q 225.0 215.5 233.0 215.5 L 255 215.5" fill="none" stroke="#e57373" stroke-width="1.5" stroke-dasharray="4 2" marker-end="url(#arrow0)" class="connector-line" style="animation-delay: 0.65s, 0.65s"/>
  <path d="M 405 215.5 L 412.5 215.5 Q 420.0 215.5 420.0 208.0 L 420.0 177.0 Q 420.0 169.0 428.0 169.0 L 450 169.0" fill="none" stroke="#81c784" stroke-width="1.5" stroke-dasharray="4 2" marker-end="url(#arrow1)" class="connector-line" style="animation-delay: 0.7000000000000001s, 0.7000000000000001s"/>
  <path d="M 405 483.5 L 412.5 483.5 Q 420.0 483.5 420.0 491.0 L 420.0 522.0 Q 420.0 530.0 428.0 530.0 L 450 530.0" fill="none" stroke="#64b5f6" stroke-width="1.5" stroke-dasharray="4 2" marker-end="url(#arrow2)" class="connector-line" style="animation-delay: 0.75s, 0.75s"/>
  <path d="M 600 530.0 L 611.25 530.0 Q 615.0 530.0 615.0 526.25 L 615.0 526.25 Q 615.0 522.5 618.75 522.5 L 645 522.5" fill="none" stroke="#ffb74d" stroke-width="1.5" stroke-dasharray="4 2" marker-end="url(#arrow3)" class="connector-line" style="animation-delay: 0.8s, 0.8s"/>
  <path d="M 720.0 624 L 720.0 718.5 Q 720.0 726.5 712.0 726.5 L 210 726.5" fill="none" stroke="#ba68c8" stroke-width="1.5" stroke-dasharray="4 2" marker-end="url(#arrow4)" class="connector-line" style="animation-delay: 0.8500000000000001s, 0.8500000000000001s"/>
  <path d="M 135.0 952 L 135.0 1077.5 Q 135.0 1085.5 143.0 1085.5 L 255 1085.5" fill="none" stroke="#4db6ac" stroke-width="1.5" stroke-dasharray="4 2" marker-end="url(#arrow5)" class="connector-line" style="animation-delay: 0.9s, 0.9s"/>
  <path d="M 405 1085.5 L 517.0 1085.5 Q 525.0 1085.5 525.0 1077.5 L 525.0 1069" fill="none" stroke="#f06292" stroke-width="1.5" stroke-dasharray="4 2" marker-end="url(#arrow6)" class="connector-line" style="animation-delay: 0.9500000000000001s, 0.9500000000000001s"/>
  <path d="M 405 1085.5 L 712.0 1085.5 Q 720.0 1085.5 720.0 1077.5 L 720.0 1030" fill="none" stroke="#7986cb" stroke-width="1.5" stroke-dasharray="4 2" marker-end="url(#arrow7)" class="connector-line" style="animation-delay: 1.0s, 1.0s"/>
  <path d="M 330.0 1292 L 330.0 1371.5 Q 330.0 1379.5 322.0 1379.5 L 210 1379.5" fill="none" stroke="#aed581" stroke-width="1.5" stroke-dasharray="4 2" marker-end="url(#arrow8)" class="connector-line" style="animation-delay: 1.05s, 1.05s"/>
</svg>