<svg xmlns="http://www.w3.org/2000/svg" viewBox="0 0 855 1516" font-family="'PingFang SC','Microsoft YaHei',sans-serif">
  <defs>
    <!-- 箭头标记：小巧三角形，refX控制箭头离终点距离 -->
    <marker id="arrow" viewBox="0 0 8 8" refX="7.5" refY="4"
            markerWidth="5" markerHeight="5" orient="auto">
      <path d="M 0 0 L 8 4 L 0 8 L 1 4 Z" fill="#999"/>
    </marker>
  </defs>
  <style>
    .legend-text { font-size: 10px; fill: #555; }
    @keyframes fadeIn { from { opacity: 0; } to { opacity: 1; } }
    .layer-frame { opacity: 0; animation: fadeIn 0.4s ease-out forwards; }
    .component-card { opacity: 0; animation: fadeIn 0.5s ease-out forwards; }
    .connector-line { opacity: 0; animation: fadeIn 0.4s ease-out forwards; }
  </style>
  <rect width="855" height="1516" fill="#f8f9fa"/>
  <text x="427" y="20" text-anchor="middle" font-size="18" font-weight="bold" fill="#333">电商领域模型</text>
  <g transform="translate(40, 30)" class="layer-frame">
    <rect x="0" y="0" width="12" height="12" fill="#fce4ec" stroke="#e91e63"/>
    <text x="16" y="10" class="legend-text">时标</text>
    <rect x="50" y="0" width="12" height="12" fill="#f1f8e9" stroke="#689f38"/>
    <text x="66" y="10" class="legend-text">资源</text>
    <rect x="100" y="0" width="12" height="12" fill="#fff9c4" stroke="#f9a825"/>
    <text x="116" y="10" class="legend-text">角色</text>
    <rect x="150" y="0" width="12" height="12" fill="#e3f2fd" stroke="#1976d2"/>
    <text x="166" y="10" class="legend-text">描述</text>
  </g>
  <!-- 领域外框 -->
  <rect x="40" y="60" width="775" height="275" rx="4" fill="#fff" stroke="#333" stroke-width="2" class="layer-frame" style="animation-delay: 0.1s"/>
  <path d="M40 60 L103 60 L103 77 Q103 85 95 85 L40 85 Z" fill="#333" class="layer-frame" style="animation-delay: 0.15000000000000002s"/>
  <text x="71.5" y="77" text-anchor="middle" font-size="13" font-weight="bold" fill="#fff" class="layer-frame" style="animation-delay: 0.15000000000000002s">用户域</text>
  <rect x="40" y="355" width="775" height="475" rx="4" fill="#fff" stroke="#333" stroke-width="2" class="layer-frame" style="animation-delay: 0.2s"/>
  <path d="M40 355 L103 355 L103 372 Q103 380 95 380 L40 380 Z" fill="#333" class="layer-frame" style="animation-delay: 0.25s"/>
  <text x="71.5" y="372" text-anchor="middle" font-size="13" font-weight="bold" fill="#fff" class="layer-frame" style="animation-delay: 0.25s">商品域</text>
  <rect x="40" y="850" width="775" height="646" rx="4" fill="#fff" stroke="#333" stroke-width="2" class="layer-frame" style="animation-delay: 0.30000000000000004s"/>
  <path d="M40 850 L103 850 L103 867 Q103 875 95 875 L40 875 Z" fill="#333" class="layer-frame" style="animation-delay: 0.35000000000000003s"/>
  <text x="71.5" y="867" text-anchor="middle" font-size="13" font-weight="bold" fill="#fff" class="layer-frame" style="animation-delay: 0.35000000000000003s">订单域</text>
  <!-- 模型卡片 -->
  <g transform="translate(60, 110)" class="component-card" style="animation-delay: 0.3s">
    <rect x="0" y="0" width="150" height="125" rx="6" fill="#e3f2fd" stroke="#1976d2" stroke-width="1.5"/>
    <text x="75.0" y="16" text-anchor="middle" font-size="12" font-weight="bold">用户等级</text>
    <text x="75.0" y="28" text-anchor="middle" font-size="10" fill="#666">UserLevel</text>
    <line x1="8" y1="35" x2="142" y2="35" stroke="#1976d2" stroke-width="0.5" stroke-dasharray="2,2"/>
    <text x="8" y="50" font-size="10" fill="#555">+ ID</text>
    <text x="8" y="63" font-size="10" fill="#555">+ 等级名称</text>
    <text x="8" y="76" font-size="10" fill="#555">+ 等级值</text>
    <text x="8" y="89" font-size="10" fill="#555">+ 最低积分</text>
    <text x="8" y="102" font-size="10" fill="#555">+ 最高积分</text>
    <text x="8" y="115" font-size="10" fill="#555">+ 折扣率</text>
  </g>
  <g transform="translate(255, 110)" class="component-card" style="animation-delay: 0.35s">
    <rect x="0" y="0" width="150" height="205" rx="6" fill="#fff9c4" stroke="#f9a825" stroke-width="1.5"/>
    <text x="75.0" y="16" text-anchor="middle" font-size="12" font-weight="bold">用户</text>
    <text x="75.0" y="28" text-anchor="middle" font-size="10" fill="#666">User</text>
    <line x1="8" y1="35" x2="142" y2="35" stroke="#f9a825" stroke-width="0.5" stroke-dasharray="2,2"/>
    <text x="8" y="50" font-size="10" fill="#555">+ ID</text>
    <text x="8" y="63" font-size="10" fill="#555">+ 用户名</text>
    <text x="8" y="76" font-size="10" fill="#555">+ 密码</text>
    <text x="8" y="89" font-size="10" fill="#555">+ 昵称</text>
    <text x="8" y="102" font-size="10" fill="#555">+ 手机号</text>
    <text x="8" y="115" font-size="10" fill="#555">+ 邮箱</text>
    <text x="8" y="128" font-size="10" fill="#555">+ 头像</text>
    <text x="8" y="141" font-size="10" fill="#555">+ 性别</text>
    <text x="8" y="154" font-size="10" fill="#555">+ 状态</text>
    <text x="8" y="167" font-size="10" fill="#555">T 用户等级</text>
    <line x1="8" y1="180" x2="142" y2="180" stroke="#f9a825" stroke-width="0.5" stroke-dasharray="2,2"/>
    <text x="8" y="192" font-size="10" fill="#555">+ 登录()</text>
  </g>
  <g transform="translate(450, 110)" class="component-card" style="animation-delay: 0.4s">
    <rect x="0" y="0" width="150" height="164" rx="6" fill="#f1f8e9" stroke="#689f38" stroke-width="1.5"/>
    <text x="75.0" y="16" text-anchor="middle" font-size="12" font-weight="bold">收货地址</text>
    <text x="75.0" y="28" text-anchor="middle" font-size="10" fill="#666">UserAddress</text>
    <line x1="8" y1="35" x2="142" y2="35" stroke="#689f38" stroke-width="0.5" stroke-dasharray="2,2"/>
    <text x="8" y="50" font-size="10" fill="#555">+ ID</text>
    <text x="8" y="63" font-size="10" fill="#555">+ 用户ID</text>
    <text x="8" y="76" font-size="10" fill="#555">+ 收货人</text>
    <text x="8" y="89" font-size="10" fill="#555">+ 手机号</text>
    <text x="8" y="102" font-size="10" fill="#555">+ 省</text>
    <text x="8" y="115" font-size="10" fill="#555">+ 市</text>
    <text x="8" y="128" font-size="10" fill="#555">+ 区</text>
    <text x="8" y="141" font-size="10" fill="#555">+ 详细地址</text>
    <text x="8" y="154" font-size="10" fill="#555">+ 是否默认</text>
  </g>
  <g transform="translate(645, 110)" class="component-card" style="animation-delay: 0.45s">
    <rect x="0" y="0" width="150" height="151" rx="6" fill="#fce4ec" stroke="#e91e63" stroke-width="1.5"/>
    <text x="75.0" y="16" text-anchor="middle" font-size="12" font-weight="bold">登录日志</text>
    <text x="75.0" y="28" text-anchor="middle" font-size="10" fill="#666">UserLoginLog</text>
    <line x1="8" y1="35" x2="142" y2="35" stroke="#e91e63" stroke-width="0.5" stroke-dasharray="2,2"/>
    <text x="8" y="50" font-size="10" fill="#555">+ ID</text>
    <text x="8" y="63" font-size="10" fill="#555">+ 用户ID</text>
    <text x="8" y="76" font-size="10" fill="#555">+ 登录方式</text>
    <text x="8" y="89" font-size="10" fill="#555">+ 登录IP</text>
    <text x="8" y="102" font-size="10" fill="#555">+ 登录设备</text>
    <text x="8" y="115" font-size="10" fill="#555">+ 登录地点</text>
    <text x="8" y="128" font-size="10" fill="#555">+ 登录时间</text>
    <text x="8" y="141" font-size="10" fill="#555">+ 登出时间</text>
  </g>
  <g transform="translate(60, 405)" class="component-card" style="animation-delay: 0.5s">
    <rect x="0" y="0" width="150" height="138" rx="6" fill="#e3f2fd" stroke="#1976d2" stroke-width="1.5"/>
    <text x="75.0" y="16" text-anchor="middle" font-size="12" font-weight="bold">商品类目</text>
    <text x="75.0" y="28" text-anchor="middle" font-size="10" fill="#666">ProductCategory</text>
    <line x1="8" y1="35" x2="142" y2="35" stroke="#1976d2" stroke-width="0.5" stroke-dasharray="2,2"/>
    <text x="8" y="50" font-size="10" fill="#555">+ ID</text>
    <text x="8" y="63" font-size="10" fill="#555">+ 父类目ID</text>
    <text x="8" y="76" font-size="10" fill="#555">+ 类目名称</text>
    <text x="8" y="89" font-size="10" fill="#555">+ 层级</text>
    <text x="8" y="102" font-size="10" fill="#555">+ 排序</text>
    <text x="8" y="115" font-size="10" fill="#555">+ 图标</text>
    <text x="8" y="128" font-size="10" fill="#555">+ 状态</text>
  </g>
  <g transform="translate(255, 405)" class="component-card" style="animation-delay: 0.55s">
    <rect x="0" y="0" width="150" height="138" rx="6" fill="#e3f2fd" stroke="#1976d2" stroke-width="1.5"/>
    <text x="75.0" y="16" text-anchor="middle" font-size="12" font-weight="bold">商品品牌</text>
    <text x="75.0" y="28" text-anchor="middle" font-size="10" fill="#666">ProductBrand</text>
    <line x1="8" y1="35" x2="142" y2="35" stroke="#1976d2" stroke-width="0.5" stroke-dasharray="2,2"/>
    <text x="8" y="50" font-size="10" fill="#555">+ ID</text>
    <text x="8" y="63" font-size="10" fill="#555">+ 品牌名称</text>
    <text x="8" y="76" font-size="10" fill="#555">+ 英文名</text>
    <text x="8" y="89" font-size="10" fill="#555">+ 品牌Logo</text>
    <text x="8" y="102" font-size="10" fill="#555">+ 品牌描述</text>
    <text x="8" y="115" font-size="10" fill="#555">+ 排序</text>
    <text x="8" y="128" font-size="10" fill="#555">+ 状态</text>
  </g>
  <g transform="translate(450, 405)" class="component-card" style="animation-delay: 0.6000000000000001s">
    <rect x="0" y="0" width="150" height="218" rx="6" fill="#f1f8e9" stroke="#689f38" stroke-width="1.5"/>
    <text x="75.0" y="16" text-anchor="middle" font-size="12" font-weight="bold">商品SPU</text>
    <text x="75.0" y="28" text-anchor="middle" font-size="10" fill="#666">ProductSpu</text>
    <line x1="8" y1="35" x2="142" y2="35" stroke="#689f38" stroke-width="0.5" stroke-dasharray="2,2"/>
    <text x="8" y="50" font-size="10" fill="#555">+ ID</text>
    <text x="8" y="63" font-size="10" fill="#555">+ 类目ID</text>
    <text x="8" y="76" font-size="10" fill="#555">+ 品牌ID</text>
    <text x="8" y="89" font-size="10" fill="#555">+ 商品名称</text>
    <text x="8" y="102" font-size="10" fill="#555">+ 副标题</text>
    <text x="8" y="115" font-size="10" fill="#555">+ 商品编码</text>
    <text x="8" y="128" font-size="10" fill="#555">+ 主图</text>
    <text x="8" y="141" font-size="10" fill="#555">+ 商品图片</text>
    <text x="8" y="154" font-size="10" fill="#555">+ 商品详情</text>
    <text x="8" y="167" font-size="10" fill="#555">+ 状态</text>
    <text x="8" y="180" font-size="10" fill="#555">+ 排序</text>
    <line x1="8" y1="193" x2="142" y2="193" stroke="#689f38" stroke-width="0.5" stroke-dasharray="2,2"/>
    <text x="8" y="205" font-size="10" fill="#555">+ 上下架()</text>
  </g>
  <g transform="translate(645, 405)" class="component-card" style="animation-delay: 0.65s">
    <rect x="0" y="0" width="150" height="229" rx="6" fill="#f1f8e9" stroke="#689f38" stroke-width="1.5"/>
    <text x="75.0" y="16" text-anchor="middle" font-size="12" font-weight="bold">商品SKU</text>
    <text x="75.0" y="28" text-anchor="middle" font-size="10" fill="#666">ProductSku</text>
    <line x1="8" y1="35" x2="142" y2="35" stroke="#689f38" stroke-width="0.5" stroke-dasharray="2,2"/>
    <text x="8" y="50" font-size="10" fill="#555">+ ID</text>
    <text x="8" y="63" font-size="10" fill="#555">+ SPUID</text>
    <text x="8" y="76" font-size="10" fill="#555">+ SKU编码</text>
    <text x="8" y="89" font-size="10" fill="#555">+ SKU名称</text>
    <text x="8" y="102" font-size="10" fill="#555">+ 规格信息</text>
    <text x="8" y="115" font-size="10" fill="#555">+ 销售价</text>
    <text x="8" y="128" font-size="10" fill="#555">+ 原价</text>
    <text x="8" y="141" font-size="10" fill="#555">+ 成本价</text>
    <text x="8" y="154" font-size="10" fill="#555">+ 库存</text>
    <text x="8" y="167" font-size="10" fill="#555">+ 冻结库存</text>
    <text x="8" y="180" font-size="10" fill="#555">+ 重量</text>
    <text x="8" y="193" font-size="10" fill="#555">+ 体积</text>
    <text x="8" y="206" font-size="10" fill="#555">+ SKU图片</text>
    <text x="8" y="219" font-size="10" fill="#555">+ 状态</text>
  </g>
  <g transform="translate(60, 659)" class="component-card" style="animation-delay: 0.7s">
    <rect x="0" y="0" width="150" height="151" rx="6" fill="#fce4ec" stroke="#e91e63" stroke-width="1.5"/>
    <text x="75.0" y="16" text-anchor="middle" font-size="12" font-weight="bold">库存日志</text>
    <text x="75.0" y="28" text-anchor="middle" font-size="10" fill="#666">ProductStockLog</text>
    <line x1="8" y1="35" x2="142" y2="35" stroke="#e91e63" stroke-width="0.5" stroke-dasharray="2,2"/>
    <text x="8" y="50" font-size="10" fill="#555">+ ID</text>
    <text x="8" y="63" font-size="10" fill="#555">+ SKUID</text>
    <text x="8" y="76" font-size="10" fill="#555">+ 变更类型</text>
    <text x="8" y="89" font-size="10" fill="#555">+ 变更数量</text>
    <text x="8" y="102" font-size="10" fill="#555">+ 变更前库存</text>
    <text x="8" y="115" font-size="10" fill="#555">+ 变更后库存</text>
    <text x="8" y="128" font-size="10" fill="#555">+ 关联单号</text>
    <text x="8" y="141" font-size="10" fill="#555">+ 备注</text>
  </g>
  <g transform="translate(60, 900)" class="component-card" style="animation-delay: 0.75s">
    <rect x="0" y="0" width="150" height="112" rx="6" fill="#f1f8e9" stroke="#689f38" stroke-width="1.5"/>
    <text x="75.0" y="16" text-anchor="middle" font-size="12" font-weight="bold">购物车</text>
    <text x="75.0" y="28" text-anchor="middle" font-size="10" fill="#666">Cart</text>
    <line x1="8" y1="35" x2="142" y2="35" stroke="#689f38" stroke-width="0.5" stroke-dasharray="2,2"/>
    <text x="8" y="50" font-size="10" fill="#555">+ ID</text>
    <text x="8" y="63" font-size="10" fill="#555">+ 用户ID</text>
    <text x="8" y="76" font-size="10" fill="#555">+ SKUID</text>
    <text x="8" y="89" font-size="10" fill="#555">+ 数量</text>
    <text x="8" y="102" font-size="10" fill="#555">+ 是否选中</text>
  </g>
  <g transform="translate(255, 900)" class="component-card" style="animation-delay: 0.8s">
    <rect x="0" y="0" width="150" height="400" rx="6" fill="#fce4ec" stroke="#e91e63" stroke-width="1.5"/>
    <text x="75.0" y="16" text-anchor="middle" font-size="12" font-weight="bold">订单</text>
    <text x="75.0" y="28" text-anchor="middle" font-size="10" fill="#666">Order</text>
    <line x1="8" y1="35" x2="142" y2="35" stroke="#e91e63" stroke-width="0.5" stroke-dasharray="2,2"/>
    <text x="8" y="50" font-size="10" fill="#555">+ ID</text>
    <text x="8" y="63" font-size="10" fill="#555">+ 订单号</text>
    <text x="8" y="76" font-size="10" fill="#555">+ 用户ID</text>
    <text x="8" y="89" font-size="10" fill="#555">+ 商品总金额</text>
    <text x="8" y="102" font-size="10" fill="#555">+ 优惠金额</text>
    <text x="8" y="115" font-size="10" fill="#555">+ 运费</text>
    <text x="8" y="128" font-size="10" fill="#555">+ 应付金额</text>
    <text x="8" y="141" font-size="10" fill="#555">+ 支付方式</text>
    <text x="8" y="154" font-size="10" fill="#555">+ 支付时间</text>
    <text x="8" y="167" font-size="10" fill="#555">+ 订单状态</text>
    <text x="8" y="180" font-size="10" fill="#555">+ 收货人</text>
    <text x="8" y="193" font-size="10" fill="#555">+ 手机号</text>
    <text x="8" y="206" font-size="10" fill="#555">+ 省</text>
    <text x="8" y="219" font-size="10" fill="#555">+ 市</text>
    <text x="8" y="232" font-size="10" fill="#555">+ 区</text>
    <text x="8" y="245" font-size="10" fill="#555">+ 详细地址</text>
    <text x="8" y="258" font-size="10" fill="#555">+ 买家备注</text>
    <text x="8" y="271" font-size="10" fill="#555">+ 发货时间</text>
    <text x="8" y="284" font-size="10" fill="#555">+ 收货时间</text>
    <text x="8" y="297" font-size="10" fill="#555">+ 取消时间</text>
    <text x="8" y="310" font-size="10" fill="#555">+ 取消原因</text>
    <line x1="8" y1="323" x2="142" y2="323" stroke="#e91e63" stroke-width="0.5" stroke-dasharray="2,2"/>
    <text x="8" y="335" font-size="10" fill="#555">+ 创建订单()</text>
    <text x="8" y="348" font-size="10" fill="#555">+ 支付()</text>
    <text x="8" y="361" font-size="10" fill="#555">+ 发货()</text>
    <text x="8" y="374" font-size="10" fill="#555">+ 收货()</text>
    <text x="8" y="387" font-size="10" fill="#555">+ 取消()</text>
  </g>
  <g transform="translate(450, 900)" class="component-card" style="animation-delay: 0.8500000000000001s">
    <rect x="0" y="0" width="150" height="229" rx="6" fill="#fce4ec" stroke="#e91e63" stroke-width="1.5"/>
    <text x="75.0" y="16" text-anchor="middle" font-size="12" font-weight="bold">订单明细</text>
    <text x="75.0" y="28" text-anchor="middle" font-size="10" fill="#666">OrderItem</text>
    <line x1="8" y1="35" x2="142" y2="35" stroke="#e91e63" stroke-width="0.5" stroke-dasharray="2,2"/>
    <text x="8" y="50" font-size="10" fill="#555">+ ID</text>
    <text x="8" y="63" font-size="10" fill="#555">+ 订单ID</text>
    <text x="8" y="76" font-size="10" fill="#555">+ 订单号</text>
    <text x="8" y="89" font-size="10" fill="#555">+ SKUID</text>
    <text x="8" y="102" font-size="10" fill="#555">+ SKU编码</text>
    <text x="8" y="115" font-size="10" fill="#555">+ SKU名称</text>
    <text x="8" y="128" font-size="10" fill="#555">+ 规格信息</text>
    <text x="8" y="141" font-size="10" fill="#555">+ 商品图片</text>
    <text x="8" y="154" font-size="10" fill="#555">+ 单价</text>
    <text x="8" y="167" font-size="10" fill="#555">+ 数量</text>
    <text x="8" y="180" font-size="10" fill="#555">+ 小计金额</text>
    <text x="8" y="193" font-size="10" fill="#555">+ 优惠金额</text>
    <text x="8" y="206" font-size="10" fill="#555">+ 实付金额</text>
    <text x="8" y="219" font-size="10" fill="#555">+ 状态</text>
  </g>
  <g transform="translate(645, 900)" class="component-card" style="animation-delay: 0.9000000000000001s">
    <rect x="0" y="0" width="150" height="177" rx="6" fill="#fce4ec" stroke="#e91e63" stroke-width="1.5"/>
    <text x="75.0" y="16" text-anchor="middle" font-size="12" font-weight="bold">支付记录</text>
    <text x="75.0" y="28" text-anchor="middle" font-size="10" fill="#666">OrderPayment</text>
    <line x1="8" y1="35" x2="142" y2="35" stroke="#e91e63" stroke-width="0.5" stroke-dasharray="2,2"/>
    <text x="8" y="50" font-size="10" fill="#555">+ ID</text>
    <text x="8" y="63" font-size="10" fill="#555">+ 订单ID</text>
    <text x="8" y="76" font-size="10" fill="#555">+ 订单号</text>
    <text x="8" y="89" font-size="10" fill="#555">+ 支付流水号</text>
    <text x="8" y="102" font-size="10" fill="#555">+ 支付方式</text>
    <text x="8" y="115" font-size="10" fill="#555">+ 支付金额</text>
    <text x="8" y="128" font-size="10" fill="#555">+ 支付状态</text>
    <text x="8" y="141" font-size="10" fill="#555">+ 支付时间</text>
    <text x="8" y="154" font-size="10" fill="#555">+ 退款金额</text>
    <text x="8" y="167" font-size="10" fill="#555">+ 退款时间</text>
  </g>
  <g transform="translate(60, 1325)" class="component-card" style="animation-delay: 0.95s">
    <rect x="0" y="0" width="150" height="151" rx="6" fill="#fce4ec" stroke="#e91e63" stroke-width="1.5"/>
    <text x="75.0" y="16" text-anchor="middle" font-size="12" font-weight="bold">订单物流</text>
    <text x="75.0" y="28" text-anchor="middle" font-size="10" fill="#666">OrderDelivery</text>
    <line x1="8" y1="35" x2="142" y2="35" stroke="#e91e63" stroke-width="0.5" stroke-dasharray="2,2"/>
    <text x="8" y="50" font-size="10" fill="#555">+ ID</text>
    <text x="8" y="63" font-size="10" fill="#555">+ 订单ID</text>
    <text x="8" y="76" font-size="10" fill="#555">+ 订单号</text>
    <text x="8" y="89" font-size="10" fill="#555">+ 快递公司</text>
    <text x="8" y="102" font-size="10" fill="#555">+ 快递单号</text>
    <text x="8" y="115" font-size="10" fill="#555">+ 发货时间</text>
    <text x="8" y="128" font-size="10" fill="#555">+ 签收时间</text>
    <text x="8" y="141" font-size="10" fill="#555">+ 状态</text>
  </g>
  <!-- 连线 -->
  <path d="M 210 172.5 L 222.0 172.5 Q 230.0 172.5 230.0 180.5 L 230.0 204.5 Q 230.0 212.5 238.0 212.5 L 255 212.5" fill="none" stroke="#999" stroke-width="1.5" stroke-dasharray="4 2" marker-end="url(#arrow)" class="connector-line" style="animation-delay: 0.65s"/>
  <path d="M 405 212.5 L 417.0 212.5 Q 425.0 212.5 425.0 204.5 L 425.0 200.0 Q 425.0 192.0 433.0 192.0 L 450 192.0" fill="none" stroke="#999" stroke-width="1.5" stroke-dasharray="4 2" marker-end="url(#arrow)" class="connector-line" style="animation-delay: 0.7000000000000001s"/>
  <path d="M 405 474.0 L 417.0 474.0 Q 425.0 474.0 425.0 482.0 L 425.0 506.0 Q 425.0 514.0 433.0 514.0 L 450 514.0" fill="none" stroke="#999" stroke-width="1.5" stroke-dasharray="4 2" marker-end="url(#arrow)" class="connector-line" style="animation-delay: 0.75s"/>
  <path d="M 600 514.0 L 617.25 514.0 Q 620.0 514.0 620.0 516.75 L 620.0 516.75 Q 620.0 519.5 622.75 519.5 L 645 519.5" fill="none" stroke="#999" stroke-width="1.5" stroke-dasharray="4 2" marker-end="url(#arrow)" class="connector-line" style="animation-delay: 0.8s"/>
  <path d="M 720.0 634 L 720.0 726.5 Q 720.0 734.5 712.0 734.5 L 210 734.5" fill="none" stroke="#999" stroke-width="1.5" stroke-dasharray="4 2" marker-end="url(#arrow)" class="connector-line" style="animation-delay: 0.8500000000000001s"/>
  <path d="M 135.0 1012 L 135.0 1092.0 Q 135.0 1100.0 143.0 1100.0 L 255 1100.0" fill="none" stroke="#999" stroke-width="1.5" stroke-dasharray="4 2" marker-end="url(#arrow)" class="connector-line" style="animation-delay: 0.9s"/>
  <path d="M 405 1100.0 L 417.0 1100.0 Q 425.0 1100.0 425.0 1092.0 L 425.0 1022.5 Q 425.0 1014.5 433.0 1014.5 L 450 1014.5" fill="none" stroke="#999" stroke-width="1.5" stroke-dasharray="4 2" marker-end="url(#arrow)" class="connector-line" style="animation-delay: 0.9500000000000001s"/>
  <path d="M 330.0 1300 L 330.0 1392.5 Q 330.0 1400.5 322.0 1400.5 L 210 1400.5" fill="none" stroke="#999" stroke-width="1.5" stroke-dasharray="4 2" marker-end="url(#arrow)" class="connector-line" style="animation-delay: 1.0s"/>
  <path d="M 525.0 1129 L 525.0 1392.5 Q 525.0 1400.5 517.0 1400.5 L 210 1400.5" fill="none" stroke="#999" stroke-width="1.5" stroke-dasharray="4 2" marker-end="url(#arrow)" class="connector-line" style="animation-delay: 1.05s"/>
</svg>